<?xml version="1.0" encoding="UTF-8"?>
<svg xmlns="http://www.w3.org/2000/svg" xmlns:xlink="http://www.w3.org/1999/xlink" width="375pt" height="374.999991pt" viewBox="0 0 375 374.999991" version="1.2">
<defs>
<clipPath id="clip1">
  <path d="M 70.796875 41.875 L 163.796875 41.875 L 163.796875 113.125 L 70.796875 113.125 Z M 70.796875 41.875 "/>
</clipPath>
<clipPath id="clip2">
  <path d="M 70.796875 261.882812 L 163.796875 261.882812 L 163.796875 333.132812 L 70.796875 333.132812 Z M 70.796875 261.882812 "/>
</clipPath>
</defs>
<g id="surface1">
<g clip-path="url(#clip1)" clip-rule="nonzero">
<path style=" stroke:none;fill-rule:nonzero;fill:rgb(66.268921%,81.17981%,27.449036%);fill-opacity:1;" d="M 145.890625 41.875 L 88.699219 41.875 C 78.691406 41.875 70.828125 49.710938 70.828125 59.6875 L 70.828125 95.3125 C 70.828125 105.285156 78.691406 113.125 88.699219 113.125 L 145.890625 113.125 C 155.898438 113.125 163.765625 105.285156 163.765625 95.3125 L 163.765625 59.6875 C 163.765625 49.710938 155.898438 41.875 145.890625 41.875 Z M 145.890625 41.875 "/>
</g>
<path style=" stroke:none;fill-rule:nonzero;fill:rgb(66.268921%,81.17981%,27.449036%);fill-opacity:1;" d="M 97.953125 248.117188 L 97.953125 41.875 L 304.203125 41.875 Z M 97.953125 248.117188 "/>
<path style=" stroke:none;fill-rule:nonzero;fill:rgb(66.268921%,81.17981%,27.449036%);fill-opacity:1;" d="M 304.203125 333.125 L 98.03125 333.125 L 98.03125 126.953125 Z M 304.203125 333.125 "/>
<g clip-path="url(#clip2)" clip-rule="nonzero">
<path style=" stroke:none;fill-rule:nonzero;fill:rgb(66.268921%,81.17981%,27.449036%);fill-opacity:1;" d="M 145.890625 261.882812 L 88.699219 261.882812 C 78.691406 261.882812 70.828125 269.804688 70.828125 279.882812 L 70.828125 315.882812 C 70.828125 325.964844 78.691406 333.882812 88.699219 333.882812 L 145.890625 333.882812 C 155.898438 333.882812 163.761719 325.964844 163.761719 315.882812 L 163.761719 279.882812 C 163.761719 269.804688 155.898438 261.882812 145.890625 261.882812 Z M 145.890625 261.882812 "/>
</g>
<path style=" stroke:none;fill-rule:nonzero;fill:rgb(66.268921%,81.17981%,27.449036%);fill-opacity:1;" d="M 70.796875 88.753906 L 133.15625 88.753906 L 133.15625 294.820312 L 70.796875 294.820312 Z M 70.796875 88.753906 "/>
<path style=" stroke:none;fill-rule:nonzero;fill:rgb(76.858521%,19.219971%,45.878601%);fill-opacity:1;" d="M 70.789062 80.972656 L 256.136719 187.988281 L 70.789062 295 Z M 70.789062 80.972656 "/>
<path style=" stroke:none;fill-rule:nonzero;fill:rgb(91.758728%,14.898682%,55.688477%);fill-opacity:1;" d="M 70.789062 271.703125 L 70.789062 152.042969 L 194.28125 152.042969 Z M 70.789062 271.703125 "/>
<path style=" stroke:none;fill-rule:nonzero;fill:rgb(91.758728%,14.898682%,55.688477%);fill-opacity:1;" d="M 194.777344 223.527344 L 71.285156 223.527344 L 71.285156 100.035156 Z M 194.777344 223.527344 "/>
<path style=" stroke:none;fill-rule:nonzero;fill:rgb(91.758728%,14.898682%,55.688477%);fill-opacity:1;" d="M 194.28125 152.019531 L 70.796875 152.019531 L 70.796875 81.597656 Z M 194.28125 152.019531 "/>
<path style=" stroke:none;fill-rule:nonzero;fill:rgb(91.758728%,14.898682%,55.688477%);fill-opacity:1;" d="M 71.265625 294.996094 L 71.265625 223.527344 L 194.765625 223.527344 Z M 71.265625 294.996094 "/>
</g>
</svg>
